<svg xmlns="http://www.w3.org/2000/svg"
 xmlns:xlink="http://www.w3.org/1999/xlink" width="500" zoomAndPan="magnify" viewBox="0 0 375 374.999991" height="500" preserveAspectRatio="xMidYMid meet" version="1.0"><defs><g/><clipPath id="c8231378c3"><
    path d="M 166 175.066406 L 208.476562 175.066406 L 208.476562 198 L 166 198 Z M 166 175.066406 " clip-rule="nonzero"/></clipPath><clipPath id="0419119ab0"><path d="M 189 187 L 208.476562 187 L 208.476562 198 L 189 198 Z M 189 187 " clip-rule="nonzero"/></clipPath><clipPath id="13a4a84026"><path d="M 91.753906 160.109375 L 121.753906 160.109375 L 121.753906 198.359375 L 91.753906 198.359375 Z M 91.753906 160.109375 " clip-rule="nonzero"/></clipPath><clipPath id="aee03f441a"><path d="M 252.410156 160.109375 L 302.660156 160.109375 L 302.660156 198.359375 L 252.410156 198.359375 Z M 252.410156 160.109375 " clip-rule="nonzero"/></clipPath><clipPath id="3a60529638"><path d="M 273 160.109375 L 290 160.109375 L 290 177 L 273 177 Z M 273 160.109375 " clip-rule="nonzero"/></clipPath></defs><g fill="#000000" fill-opacity="1"><g transform="translate(123.352729, 196.896352)"><g><path d="M 4.359375 -36.921875 L 4.359375 0 L 8.5625 0 L 8.5625 -36.921875 Z M 4.359375 -36.921875 "/></g></g></g><g fill="#000000" fill-opacity="1"><g transform="translate(135.404273, 196.896352)"><g><path d="M 14.578125 -28.03125 C 8.078125 -28.03125 3.34375 -25.234375 2.796875 -20.5625 L 6.734375 -19.90625 C 7.3125 -23.03125 9.84375 -24.75 14.203125 -24.75 C 18.9375 -24.75 21.140625 -22.984375 21.140625 -18.296875 L 21.140625 -16.953125 L 17.375 -16.953125 C 10.703125 -16.953125 7.109375 -15.875 5 -13.984375 C 2.90625 -12.109375 2.046875 -9.953125 2.046875 -7.75 C 2.046875 -2.6875 5.96875 0.53125 11.5625 0.53125 C 15.875 0.53125 19.15625 -1.125 21.140625 -5.109375 L 21.625 0 L 25.828125 0 C 25.234375 -1.890625 25.234375 -4.140625 25.234375 -5.375 L 25.234375 -17.0625 C 25.234375 -20.9375 24.75 -23.25 23.140625 -25.125 C 21.625 -26.953125 19.3125 -28.03125 14.578125 -28.03125 Z M 6.5625 -7.53125 C 6.5625 -11.625 10.28125 -13.78125 17.21875 -13.78125 L 21.140625 -13.78125 L 21.140625 -12 C 21.140625 -7.046875 17.59375 -2.75 12.484375 -2.75 C 8.984375 -2.75 6.5625 -4.515625 6.5625 -7.53125 Z M 6.5625 -7.53125 "/></g></g></g><g fill="#000000" fill-opacity="1"><g transform="translate(163.607637, 196.896352)"><g/></g></g><g fill="#000000" fill-opacity="1"><g transform="translate(178.887318, 196.896352)"><g/></g></g><g fill="#000000" fill-opacity="1"><g transform="translate(194.167, 196.896352)"><g/></g></g><g fill="#000000" fill-opacity="1"><g transform="translate(209.454978, 196.896352)"><g><path d="M 3.984375 -36.921875 L 3.984375 0 L 8.171875 0 L 8.171875 -8.453125 L 14.046875 -15.234375 L 22.015625 0 L 26.46875 0 L 16.84375 -17.65625 L 25.34375 -27.234375 L 20.828125 -27.234375 L 8.171875 -13.296875 L 8.171875 -36.921875 Z M 3.984375 -36.921875 "/></g></g></g><g fill="#000000" fill-opacity="1"><g transform="translate(235.495206, 196.896352)"><g/></g></g><g clip-path="url(#c8231378c3)"><path fill="#1192e8" d="M 208.207031 178.625 C 207.183594 177.324219 203.578125 175.203125 200.285156 175.210938 C 195.636719 175.222656 192.808594 176.773438 190.011719 180.910156 C 187.929688 183.988281 185.023438 187.761719 183.945312 189.101562 C 183.035156 190.234375 178.550781 195.050781 173.941406 191.820312 C 171.269531 189.949219 171.445312 186.621094 171.378906 185.753906 C 171.261719 184.21875 174.835938 175.667969 182.804688 182.25 L 185.835938 178.664062 C 185.835938 178.664062 182.960938 175.355469 178.5625 175.199219 C 174.722656 175.0625 171.144531 176.300781 169.058594 179.007812 C 167.347656 181.222656 165.722656 185.089844 166.496094 188.394531 C 167.246094 191.585938 168.664062 193.476562 169.765625 194.421875 C 170.867188 195.367188 173.824219 197.335938 176.699219 197.335938 C 180.992188 197.335938 183.667969 195.957031 185.363281 194.144531 C 187.058594 192.332031 189.332031 189.804688 190.878906 187.566406 C 191.902344 186.082031 194.421875 182.710938 195.078125 181.949219 C 195.734375 181.1875 197.285156 179.789062 198.914062 179.742188 C 202.164062 179.648438 204.121094 181.160156 205.097656 182.132812 Z M 208.207031 178.625 " fill-opacity="1" fill-rule="nonzero"/></g><g clip-path="url(#0419119ab0)"><path fill="#1192e8" d="M 205.207031 190.113281 C 205.207031 190.113281 202.527344 192.636719 199.980469 192.660156 C 198.597656 192.675781 197.496094 192.425781 196.390625 191.558594 C 195.730469 191.039062 194.1875 189.195312 193.554688 187.09375 L 189.800781 192.03125 C 189.800781 192.03125 192.582031 195.128906 193.921875 195.941406 C 195.800781 197.085938 198.867188 198.15625 202.335938 197.183594 C 205.285156 196.355469 207.417969 194.863281 208.207031 194.351562 Z M 205.207031 190.113281 " fill-opacity="1" fill-rule="nonzero"/></g><g clip-path="url(#13a4a84026)"><path fill="#000000" d="M 106.753906 168.410156 L 99.84375 168.410156 L 99.84375 176.476562 L 106.753906 176.476562 C 110.566406 176.476562 113.667969 179.574219 113.667969 183.375 C 113.667969 187.179688 110.566406 190.273438 106.753906 190.273438 C 102.941406 190.273438 99.84375 187.179688 99.84375 183.375 L 99.84375 176.476562 L 91.753906 176.476562 L 91.753906 183.375 C 91.753906 191.628906 98.484375 198.34375 106.753906 198.34375 C 115.027344 198.34375 121.753906 191.628906 121.753906 183.375 C 121.753906 175.121094 115.027344 168.410156 106.753906 168.410156 Z M 99.84375 160.128906 L 99.84375 168.410156 L 91.753906 168.410156 L 91.753906 160.128906 L 99.84375 160.128906 " fill-opacity="1" fill-rule="nonzero"/></g><g clip-path="url(#aee03f441a)"><path fill="#1192e8" d="M 285.238281 183.777344 L 282.21875 185.527344 L 288.109375 198.152344 L 280.03125 198.152344 L 277.6875 192.976562 L 275.953125 189.171875 L 260.46875 198.152344 L 252.410156 198.152344 L 270.136719 160.121094 L 270.367188 160.121094 L 279.054688 178.75 L 272.917969 182.527344 L 270.265625 176.695312 L 265.734375 186.605469 L 263.835938 190.746094 L 273.734375 184.347656 L 279.8125 180.410156 L 282.714844 178.546875 L 290.222656 173.691406 L 293.050781 179.214844 L 302.730469 198.136719 L 292.101562 198.136719 Z M 285.238281 183.777344 " fill-opacity="1" fill-rule="nonzero"/></g><g clip-path="url(#3a60529638)"><path fill="#000000" d="M 289.535156 172.335938 L 281.972656 176.972656 L 273.894531 160.121094 L 283.285156 160.121094 Z M 289.535156 172.335938 " fill-opacity="1" fill-rule="nonzero"/></g></svg>